<svg width="42" height="45" viewBox="0 0 42 45" fill="none" xmlns="http://www.w3.org/2000/svg">
<path d="M9.16607 16.8339C6.27906 19.713 4.49771 23.6922 4.49771 28.0788C4.49771 28.8393 4.55231 29.593 4.65469 30.3264C5.22117 34.3056 7.26187 37.8094 10.2035 40.2743L3.91758 36.6618C1.48786 35.2698 -0.00683594 32.6963 -0.00683594 29.9054V15.3332C-0.00683594 12.7325 1.28993 10.3151 3.433 8.86872C3.58998 8.76008 3.74696 8.66501 3.91076 8.56995L13.2748 3.19195C14.1211 3.05614 14.9879 2.98145 15.8683 2.98145C17.4654 2.98145 19.0078 3.21232 20.4616 3.6469C26.3789 5.40562 30.863 10.4713 31.7434 16.6845C28.8564 13.8597 24.891 12.1213 20.523 12.1213C16.1549 12.1213 12.0599 13.914 9.15924 16.8203L9.16607 16.8339Z" fill="url(#paint0_linear_1402_1060)"/>
<path d="M41.0595 15.3398V19.8825C40.8275 23.8957 39.1007 27.5149 36.4185 30.1904C33.5178 33.0967 29.4979 34.8893 25.0547 34.8893C23.4577 34.8893 21.9152 34.6585 20.4615 34.2239C27.075 32.2614 31.9003 26.1569 31.9003 18.9387C31.9003 18.1781 31.8457 17.4244 31.7433 16.691C30.8629 10.471 26.3788 5.40539 20.4615 3.65347C19.0077 3.22567 17.4653 2.98801 15.8682 2.98801C14.9878 2.98801 14.121 3.05591 13.2747 3.19851L17.397 0.828662C19.3285 -0.278174 21.7036 -0.278174 23.6351 0.828662L27.8121 3.22567L37.1215 8.57651C37.1965 8.61725 37.2716 8.658 37.3399 8.71232C39.6399 10.1247 41.0459 12.6304 41.0459 15.3398H41.0595Z" fill="url(#paint1_linear_1402_1060)"/>
<path d="M41.0597 19.8824V29.9119C41.0597 32.7027 39.565 35.2763 37.1353 36.6683L30.8494 40.2808L25.9558 43.092L24.4475 43.9544C22.0246 45.3464 19.0284 45.3464 16.6055 43.9544L15.0971 43.092L10.2036 40.2808C7.25513 37.8159 5.21444 34.3052 4.65478 30.3329C4.5524 29.5995 4.4978 28.8526 4.4978 28.0852C4.4978 23.6986 6.27915 19.7195 9.16615 16.8403C9.07743 17.533 9.02965 18.2324 9.02965 18.9454C9.02965 26.1636 13.855 32.2681 20.4685 34.2306C21.9222 34.6583 23.4647 34.896 25.0618 34.896C29.5049 34.896 33.5249 33.1033 36.4255 30.1971C39.1009 27.5216 40.8345 23.9024 41.0666 19.8892L41.0597 19.8824Z" fill="url(#paint2_linear_1402_1060)"/>
<defs>
<linearGradient id="paint0_linear_1402_1060" x1="21.3693" y1="11.1639" x2="-1.85627" y2="32.7055" gradientUnits="userSpaceOnUse">
<stop offset="0.02" stop-color="#F8CB00"/>
<stop offset="0.5" stop-color="#F8E057"/>
<stop offset="0.9" stop-color="#F9F19E"/>
</linearGradient>
<linearGradient id="paint1_linear_1402_1060" x1="35.8452" y1="30.6929" x2="9.0011" y2="-7.46231" gradientUnits="userSpaceOnUse">
<stop stop-color="#F8C900"/>
<stop offset="0.28" stop-color="#FBDF4F"/>
<stop offset="0.55" stop-color="#FFF59B"/>
</linearGradient>
<linearGradient id="paint2_linear_1402_1060" x1="6.49072" y1="24.7987" x2="41.2374" y2="36.1271" gradientUnits="userSpaceOnUse">
<stop offset="0.08" stop-color="#F8CB00"/>
<stop offset="0.48" stop-color="#FAE156"/>
<stop offset="0.83" stop-color="#FDF39D"/>
</linearGradient>
</defs>
</svg>
