<svg xmlns="http://www.w3.org/2000/svg" width="44" height="44" viewBox="0 0 44 44" fill="none">
  <g clip-path="url(#clip0_691_5313)">
    <path d="M27.5 22C27.5 25.795 30.58 28.875 34.375 28.875C38.17 28.875 41.25 25.795 41.25 22C41.25 21.78 41.195 21.5737 41.0987 21.3813L35.5987 10.3813C35.5987 10.3813 35.5575 10.2987 35.53 10.2712C35.2825 9.8725 34.8425 9.625 34.3612 9.625H25.8637C25.4513 8.47 24.53 7.54875 23.3612 7.1225V2.75H20.6112V7.1225C19.4425 7.535 18.5212 8.45625 18.1088 9.625H9.61125C9.08875 9.625 8.6075 9.91375 8.3875 10.3813L2.90125 21.3813C2.805 21.5737 2.75 21.78 2.75 22C2.75 25.795 5.83 28.875 9.625 28.875C13.42 28.875 16.5 25.795 16.5 22C16.5 21.78 16.445 21.5737 16.3488 21.3813L11.8387 12.375H18.1088C18.5212 13.53 19.4425 14.4512 20.6112 14.8775V38.5H8.25V41.25H35.75V38.5H23.375V14.8775C24.5438 14.465 25.465 13.5437 25.8775 12.375H32.1475L27.6375 21.3813C27.5413 21.5737 27.4862 21.78 27.4862 22H27.5ZM9.625 26.125C7.8375 26.125 6.325 24.97 5.7475 23.375H13.4888C12.925 24.97 11.4125 26.125 9.61125 26.125H9.625ZM12.8975 20.625H6.3525L9.625 14.08L12.8975 20.625ZM22 12.375C21.2437 12.375 20.625 11.7563 20.625 11C20.625 10.2438 21.2437 9.625 22 9.625C22.7563 9.625 23.375 10.2438 23.375 11C23.375 11.7563 22.7563 12.375 22 12.375ZM34.375 26.125C32.5875 26.125 31.075 24.97 30.4975 23.375H38.2388C37.675 24.97 36.1625 26.125 34.3612 26.125H34.375ZM34.375 14.08L37.6475 20.625H31.1025L34.375 14.08Z" fill="#111111"/>
  </g>
  <defs>
    <clipPath id="clip0_691_5313">
      <rect width="44" height="44" fill="white"/>
    </clipPath>
  </defs>
</svg>