<svg width="21" height="15" viewBox="0 0 21 15" fill="none" xmlns="http://www.w3.org/2000/svg">
    <g clip-path="url(#clip0_201_2582)">
        <path d="M10.5 10.3125C11.6046 10.3125 12.5 9.47303 12.5 8.4375C12.5 7.40197 11.6046 6.5625 10.5 6.5625C9.39543 6.5625 8.5 7.40197 8.5 8.4375C8.5 9.47303 9.39543 10.3125 10.5 10.3125Z"
              fill="#111111"/>
        <path d="M18.5 2.8125H15.22L14.68 1.28438C14.41 0.515625 13.64 0 12.78 0H8.22C7.36 0 6.6 0.515625 6.32 1.28438L5.78 2.8125H2.5C1.4 2.8125 0.5 3.65625 0.5 4.6875V13.125C0.5 14.1563 1.4 15 2.5 15H18.5C19.6 15 20.5 14.1563 20.5 13.125V4.6875C20.5 3.65625 19.6 2.8125 18.5 2.8125ZM10.5 12.1875C8.29 12.1875 6.5 10.5094 6.5 8.4375C6.5 6.36562 8.29 4.6875 10.5 4.6875C12.71 4.6875 14.5 6.36562 14.5 8.4375C14.5 10.5094 12.71 12.1875 10.5 12.1875Z"
              fill="#111111"/>
    </g>
    <defs>
        <clipPath id="clip0_201_2582">
            <rect width="20" height="15" fill="white" transform="translate(0.5)"/>
        </clipPath>
    </defs>
</svg>
