<svg width="20" height="20" viewBox="0 0 20 20" fill="none" xmlns="http://www.w3.org/2000/svg">
    <path d="M12.5 13.3333C12.7361 13.3333 12.9342 13.2533 13.0942 13.0933C13.2536 12.9339 13.3333 12.7361 13.3333 12.5V10.8333H15C15.2361 10.8333 15.4339 10.7533 15.5933 10.5933C15.7533 10.4339 15.8333 10.2361 15.8333 10C15.8333 9.76389 15.7533 9.56583 15.5933 9.40583C15.4339 9.24639 15.2361 9.16667 15 9.16667H13.3333V7.5C13.3333 7.26389 13.2536 7.06583 13.0942 6.90583C12.9342 6.74639 12.7361 6.66667 12.5 6.66667C12.2639 6.66667 12.0661 6.74639 11.9067 6.90583C11.7467 7.06583 11.6667 7.26389 11.6667 7.5V9.16667H10C9.76389 9.16667 9.56611 9.24639 9.40667 9.40583C9.24667 9.56583 9.16667 9.76389 9.16667 10C9.16667 10.2361 9.24667 10.4339 9.40667 10.5933C9.56611 10.7533 9.76389 10.8333 10 10.8333H11.6667V12.5C11.6667 12.7361 11.7467 12.9339 11.9067 13.0933C12.0661 13.2533 12.2639 13.3333 12.5 13.3333ZM3.6875 16.4792C2.57639 15.8542 1.68417 14.9653 1.01083 13.8125C0.336944 12.6597 0 11.3889 0 10C0 8.61111 0.343889 7.33667 1.03167 6.17667C1.71889 5.01722 2.65278 4.10417 3.83333 3.4375C4.11111 3.28472 4.375 3.29861 4.625 3.47917C4.875 3.65972 5 3.90972 5 4.22917C5 4.36806 4.95833 4.51389 4.875 4.66667C4.79167 4.81944 4.68056 4.93056 4.54167 5C3.65278 5.52778 2.95139 6.2325 2.4375 7.11417C1.92361 7.99639 1.66667 8.95833 1.66667 10C1.66667 11.0417 1.92361 12.0036 2.4375 12.8858C2.95139 13.7675 3.65278 14.4722 4.54167 15C4.68056 15.0694 4.79167 15.1806 4.875 15.3333C4.95833 15.4861 5 15.6389 5 15.7917C5 16.1111 4.86806 16.3542 4.60417 16.5208C4.34028 16.6875 4.03472 16.6736 3.6875 16.4792ZM12.5 17.5C11.4583 17.5 10.4828 17.3022 9.57333 16.9067C8.66333 16.5106 7.87167 15.9756 7.19833 15.3017C6.52444 14.6283 5.98972 13.8367 5.59417 12.9267C5.19806 12.0172 5 11.0417 5 10C5 8.95833 5.19806 7.9825 5.59417 7.0725C5.98972 6.16306 6.52444 5.37139 7.19833 4.6975C7.87167 4.02417 8.66333 3.48944 9.57333 3.09333C10.4828 2.69778 11.4583 2.5 12.5 2.5C13.5417 2.5 14.5175 2.69778 15.4275 3.09333C16.3369 3.48944 17.1286 4.02417 17.8025 4.6975C18.4758 5.37139 19.0106 6.16306 19.4067 7.0725C19.8022 7.9825 20 8.95833 20 10C20 11.0417 19.8022 12.0172 19.4067 12.9267C19.0106 13.8367 18.4758 14.6283 17.8025 15.3017C17.1286 15.9756 16.3369 16.5106 15.4275 16.9067C14.5175 17.3022 13.5417 17.5 12.5 17.5Z" fill="#666666"/>
</svg>
