<svg width="135" height="45" viewBox="0 0 135 45" fill="none" xmlns="http://www.w3.org/2000/svg">
<g clip-path="url(#clip0_393_1410)">
<path d="M9.16607 16.8334C6.27906 19.7125 4.49771 23.6917 4.49771 28.0783C4.49771 28.8388 4.55231 29.5925 4.65469 30.3259C5.22117 34.3051 7.26187 37.8089 10.2035 40.2739L3.91758 36.6614C1.48786 35.2693 -0.00683594 32.6958 -0.00683594 29.9049V15.3327C-0.00683594 12.732 1.28993 10.3146 3.433 8.86824C3.58998 8.75959 3.74696 8.66452 3.91076 8.56946L13.2748 3.19146C14.1211 3.05565 14.9879 2.98096 15.8683 2.98096C17.4654 2.98096 19.0078 3.21183 20.4616 3.64642C26.3789 5.40513 30.863 10.4708 31.7434 16.684C28.8564 13.8592 24.891 12.1208 20.523 12.1208C16.1549 12.1208 12.0599 13.9135 9.15924 16.8198L9.16607 16.8334Z" fill="url(#paint0_linear_393_1410)"/>
<path d="M41.0593 15.3395V19.8823C40.8272 23.8954 39.1005 27.5147 36.4182 30.1901C33.5176 33.0964 29.4976 34.8891 25.0545 34.8891C23.4574 34.8891 21.915 34.6582 20.4612 34.2236C27.0747 32.2612 31.9 26.1566 31.9 18.9384C31.9 18.1779 31.8454 17.4242 31.7431 16.6908C30.8626 10.4708 26.3786 5.40515 20.4612 3.65323C19.0075 3.22543 17.465 2.98777 15.8679 2.98777C14.9875 2.98777 14.1207 3.05567 13.2744 3.19827L17.3968 0.828418C19.3283 -0.278418 21.7034 -0.278418 23.6349 0.828418L27.8118 3.22543L37.1212 8.57627C37.1963 8.61701 37.2714 8.65775 37.3396 8.71208C39.6397 10.1245 41.0456 12.6301 41.0456 15.3395H41.0593Z" fill="url(#paint1_linear_393_1410)"/>
<path d="M41.06 19.8823V29.9117C41.06 32.7026 39.5653 35.2762 37.1356 36.6682L30.8497 40.2807L25.9561 43.0919L24.4477 43.9543C22.0248 45.3463 19.0286 45.3463 16.6057 43.9543L15.0974 43.0919L10.2038 40.2807C7.25538 37.8158 5.21468 34.3051 4.65502 30.3327C4.55265 29.5994 4.49805 28.8524 4.49805 28.0851C4.49805 23.6985 6.27939 19.7193 9.1664 16.8402C9.07767 17.5328 9.0299 18.2322 9.0299 18.9452C9.0299 26.1634 13.8552 32.268 20.4687 34.2304C21.9225 34.6582 23.4649 34.8959 25.062 34.8959C29.5051 34.8959 33.5251 33.1032 36.4258 30.1969C39.1012 27.5215 40.8348 23.9022 41.0668 19.8891L41.06 19.8823Z" fill="url(#paint2_linear_393_1410)"/>
<path d="M60.8934 12.0869V28.5808C60.8934 29.9049 60.8934 31.2426 60.9207 32.5736H57.0304C57.0304 31.7451 57.0031 31.5143 57.0031 31.1612C56.3001 32.3019 54.8873 32.9131 52.7033 32.9131C49.0109 32.9131 46.6631 29.9593 46.6631 25.4301C46.6631 20.9009 49.1611 17.7094 53.2971 17.7094C55.3992 17.7094 56.5253 18.4495 56.8529 19.1014V12.0869H60.8934ZM50.5466 25.3078C50.5466 28.1394 51.9252 29.6876 53.9045 29.6876C56.6823 29.6876 57.0031 27.3789 57.0031 25.2942C57.0031 22.809 56.6482 20.928 54.0069 20.928C51.8843 20.928 50.5397 22.5645 50.5397 25.3078H50.5466Z" fill="#111111"/>
<path d="M67.7524 24.1806C68.8239 22.7343 70.7622 20.473 72.7824 18.0489H77.4167L72.3252 23.5355L77.8944 32.5803H73.3148L69.6224 26.1159L67.7524 27.9153V32.5803H63.7119V12.0937H67.7524V24.1806Z" fill="#111111"/>
<path d="M90.3712 29.4703C90.3712 30.7673 90.4872 32.1661 90.5691 32.5735H88.2076C88.0916 32.2544 88.0097 31.5821 87.9755 30.713C87.4773 31.6636 86.3375 32.9131 83.5597 32.9131C80.1881 32.9131 78.748 30.7266 78.748 28.5604C78.748 25.3825 81.2529 23.9294 85.5049 23.9294H87.9483V22.7139C87.9483 21.4577 87.5456 19.9298 84.8701 19.9298C82.4814 19.9298 82.0787 21.1113 81.8193 22.2182H79.4306C79.6217 20.2558 80.8365 17.9878 84.952 18.0013C88.4465 18.0149 90.3848 19.4273 90.3848 22.6663V29.4703H90.3712ZM87.9619 25.6338H85.6482C82.7953 25.6338 81.2665 26.4147 81.2665 28.4246C81.2665 29.9049 82.2834 30.9846 84.0511 30.9846C87.4978 30.9846 87.9619 28.6759 87.9619 26.0887V25.6338Z" fill="#111111"/>
<path d="M91.8379 18.3409H94.3086V14.1444H96.7792V18.3409H99.9393V20.344H96.7792V28.6827C96.7792 30.0679 97.1205 30.7741 98.4104 30.7741C98.7517 30.7741 99.2636 30.7537 99.6594 30.6587V32.5125C99.052 32.7365 98.2057 32.7773 97.5232 32.7773C95.2982 32.7773 94.3154 31.6297 94.3154 29.2666V20.3508H91.8447V18.3477L91.8379 18.3409Z" fill="#111111"/>
<path d="M120.982 25.43C120.982 29.5314 118.62 32.9131 114.245 32.9131C110.15 32.9131 107.666 29.7555 107.666 25.4776C107.666 21.1996 110.096 18.0013 114.402 18.0013C118.375 18.0013 120.975 20.962 120.975 25.43H120.982ZM110.212 25.4572C110.212 28.5808 111.775 30.8556 114.348 30.8556C116.921 30.8556 118.436 28.6962 118.436 25.464C118.436 22.2318 116.975 20.0588 114.293 20.0588C111.611 20.0588 110.212 22.2114 110.212 25.4572Z" fill="#111111"/>
<path d="M123.247 21.933C123.247 20.6971 123.247 19.4477 123.22 18.3476H125.677C125.677 18.5649 125.718 19.9026 125.718 20.4119C126.291 19.1896 127.451 18.0081 130.222 18.0081C132.993 18.0081 135 19.6378 135 23.4269V32.5803H132.529V23.7392C132.529 21.5867 131.683 20.1403 129.499 20.1403C126.803 20.1403 125.711 22.1842 125.711 25.043V32.5803H123.24V21.933H123.247Z" fill="#111111"/>
<path d="M102.847 18.0081H105.317V32.5803H102.847V18.0081Z" fill="#111111"/>
<path d="M105.317 12.0869H102.847V14.545H105.317V12.0869Z" fill="#111111"/>
</g>
<defs>
<linearGradient id="paint0_linear_393_1410" x1="21.3693" y1="11.1634" x2="-1.85627" y2="32.705" gradientUnits="userSpaceOnUse">
<stop offset="0.02" stop-color="#F8CB00"/>
<stop offset="0.5" stop-color="#F8E057"/>
<stop offset="0.9" stop-color="#F9F19E"/>
</linearGradient>
<linearGradient id="paint1_linear_393_1410" x1="35.8449" y1="30.6926" x2="9.00086" y2="-7.46255" gradientUnits="userSpaceOnUse">
<stop stop-color="#F8C900"/>
<stop offset="0.28" stop-color="#FBDF4F"/>
<stop offset="0.55" stop-color="#FFF59B"/>
</linearGradient>
<linearGradient id="paint2_linear_393_1410" x1="6.49097" y1="24.7986" x2="41.2377" y2="36.127" gradientUnits="userSpaceOnUse">
<stop offset="0.08" stop-color="#F8CB00"/>
<stop offset="0.48" stop-color="#FAE156"/>
<stop offset="0.83" stop-color="#FDF39D"/>
</linearGradient>
<clipPath id="clip0_393_1410">
<rect width="135" height="45" fill="white"/>
</clipPath>
</defs>
</svg>
