<svg width="162" height="45" viewBox="0 0 162 45" fill="none" xmlns="http://www.w3.org/2000/svg">
<path d="M12.8214 18.6848C10.9892 20.5119 9.85874 23.0373 9.85874 25.8211C9.85874 26.3038 9.89339 26.7821 9.95836 27.2476C10.3179 29.7729 11.613 31.9965 13.4798 33.5609L9.49056 31.2682C7.94858 30.3848 7 28.7515 7 26.9804V17.7324C7 16.0819 7.82297 14.5477 9.18303 13.6298C9.28266 13.5609 9.38228 13.5005 9.48623 13.4402L15.4289 10.0271C15.966 9.94096 16.5161 9.89355 17.0749 9.89355C18.0884 9.89355 19.0673 10.0401 19.9899 10.3159C23.7453 11.432 26.591 14.6468 27.1498 18.59C25.3176 16.7972 22.801 15.694 20.0289 15.694C17.2568 15.694 14.6579 16.8317 12.8171 18.6761L12.8214 18.6848Z" fill="url(#paint0_linear_1368_5766)"/>
<path d="M33.0624 17.736V20.619C32.9151 23.1659 31.8193 25.4628 30.117 27.1607C28.2762 29.0052 25.725 30.1428 22.9052 30.1428C21.8917 30.1428 20.9128 29.9963 19.9902 29.7205C24.1873 28.4751 27.2496 24.6009 27.2496 20.02C27.2496 19.5374 27.215 19.059 27.15 18.5936C26.5913 14.6462 23.7455 11.4314 19.9902 10.3195C19.0676 10.048 18.0887 9.89722 17.0751 9.89722C16.5164 9.89722 15.9663 9.94031 15.4292 10.0308L18.0454 8.52683C19.2712 7.82439 20.7785 7.82439 22.0043 8.52683L24.6551 10.048L30.5632 13.4439C30.6108 13.4697 30.6585 13.4956 30.7018 13.5301C32.1615 14.4264 33.0537 16.0166 33.0537 17.736H33.0624Z" fill="url(#paint1_linear_1368_5766)"/>
<path d="M33.0618 20.6191V26.9841C33.0618 28.7553 32.1132 30.3885 30.5712 31.272L26.582 33.5646L23.4764 35.3487L22.5191 35.896C20.9815 36.7794 19.08 36.7794 17.5423 35.896L16.5851 35.3487L13.4795 33.5646C11.6083 32.0003 10.3132 29.7723 9.95802 27.2513C9.89305 26.7859 9.8584 26.3118 9.8584 25.8249C9.8584 23.041 10.9889 20.5157 12.8211 18.6885C12.7648 19.128 12.7345 19.5719 12.7345 20.0244C12.7345 24.6053 15.7968 28.4795 19.9939 29.7249C20.9165 29.9964 21.8954 30.1472 22.909 30.1472C25.7287 30.1472 28.2799 29.0095 30.1208 27.1651C31.8187 25.4672 32.9189 23.1703 33.0661 20.6234L33.0618 20.6191Z" fill="url(#paint2_linear_1368_5766)"/>
<path d="M53.2967 11.8662V28.3601C53.2967 29.6842 53.2967 31.0219 53.324 32.3529H49.4337C49.4337 31.5244 49.4064 31.2936 49.4064 30.9405C48.7034 32.0812 47.2906 32.6924 45.1066 32.6924C41.4142 32.6924 39.0664 29.7386 39.0664 25.2094C39.0664 20.6802 41.5644 17.4887 45.7004 17.4887C47.8025 17.4887 48.9286 18.2288 49.2562 18.8807V11.8662H53.2967ZM42.9499 25.0871C42.9499 27.9187 44.3285 29.4669 46.3078 29.4669C49.0856 29.4669 49.4064 27.1582 49.4064 25.0735C49.4064 22.5883 49.0515 20.7073 46.4102 20.7073C44.2876 20.7073 42.943 22.3438 42.943 25.0871H42.9499Z" fill="#111111"/>
<path d="M60.1557 23.96C61.2272 22.5136 63.1655 20.2524 65.1858 17.8282H69.82L64.7285 23.3149L70.2977 32.3597H65.7181L62.0258 25.8952L60.1557 27.6947V32.3597H56.1152V11.873H60.1557V23.96Z" fill="#111111"/>
<path d="M82.774 29.2493C82.774 30.5463 82.89 31.9451 82.9719 32.3525H80.6104C80.4944 32.0334 80.4125 31.3611 80.3784 30.492C79.8801 31.4426 78.7404 32.6921 75.9626 32.6921C72.591 32.6921 71.1509 30.5056 71.1509 28.3394C71.1509 25.1615 73.6557 23.7084 77.9077 23.7084H80.3511V22.4929C80.3511 21.2366 79.9484 19.7088 77.273 19.7088C74.8842 19.7088 74.4815 20.8903 74.2222 21.9972H71.8334C72.0245 20.0347 73.2394 17.7668 77.3549 17.7803C80.8493 17.7939 82.7876 19.2063 82.7876 22.4453V29.2493H82.774ZM80.3647 25.4127H78.051C75.1981 25.4127 73.6693 26.1936 73.6693 28.2036C73.6693 29.6839 74.6863 30.7636 76.454 30.7636C79.9006 30.7636 80.3647 28.4548 80.3647 25.8677V25.4127Z" fill="#111111"/>
<path d="M84.2417 18.1203H86.7124V13.9238H89.1831V18.1203H92.3431V20.1235H89.1831V28.4621C89.1831 29.8473 89.5243 30.5535 90.8143 30.5535C91.1555 30.5535 91.6674 30.5332 92.0632 30.4381V32.2919C91.4558 32.516 90.6095 32.5567 89.927 32.5567C87.702 32.5567 86.7192 31.4091 86.7192 29.0461V20.1303H84.2485V18.1271L84.2417 18.1203Z" fill="#111111"/>
<path d="M113.385 25.209C113.385 29.3104 111.023 32.692 106.648 32.692C102.553 32.692 100.069 29.5345 100.069 25.2565C100.069 20.9786 102.499 17.7803 106.805 17.7803C110.777 17.7803 113.378 20.7409 113.378 25.209H113.385ZM102.615 25.2361C102.615 28.3597 104.178 30.6345 106.751 30.6345C109.324 30.6345 110.839 28.4752 110.839 25.2429C110.839 22.0107 109.378 19.8378 106.696 19.8378C104.014 19.8378 102.615 21.9903 102.615 25.2361Z" fill="#111111"/>
<path d="M115.65 21.712C115.65 20.4761 115.65 19.2267 115.623 18.1266H118.08C118.08 18.3439 118.121 19.6816 118.121 20.1909C118.694 18.9686 119.855 17.7871 122.626 17.7871C125.397 17.7871 127.403 19.4168 127.403 23.2059V32.3593H124.932V23.5182C124.932 21.3657 124.086 19.9193 121.902 19.9193C119.206 19.9193 118.114 21.9632 118.114 24.822V32.3593H115.644V21.712H115.65Z" fill="#111111"/>
<path d="M95.2505 17.7871H97.7212V32.3593H95.2505V17.7871Z" fill="#111111"/>
<path d="M97.7212 11.8662H95.2505V14.3243H97.7212V11.8662Z" fill="#111111"/>
<rect x="131.403" y="23.6924" width="23" height="9" rx="4.5" fill="#111111"/>
<rect x="131.403" y="23.6924" width="23" height="9" rx="4.5" stroke="#111111" stroke-width="0.3" stroke-miterlimit="10"/>
<path d="M135.814 28.9655L135.442 30.0084H134.904L136.187 26.375H136.857L138.198 30.0084H137.627L137.246 28.9655H135.814ZM137.114 28.5103C136.783 27.5916 136.6 27.0868 136.518 26.7971C136.427 27.1116 136.22 27.7241 135.955 28.5103H137.122H137.114Z" fill="white"/>
<path d="M138.686 26.3672H140.01C141.037 26.3672 141.732 27.0624 141.732 28.1466C141.732 29.2308 141.061 30.0005 139.994 30.0005H138.686V26.3672ZM139.224 29.5536H139.952C140.78 29.5536 141.169 28.9577 141.169 28.1549C141.169 27.4597 140.813 26.8224 139.961 26.8224H139.224V29.5536Z" fill="white"/>
<path d="M145.317 28.4938C145.317 27.8317 145.317 27.1447 145.342 26.7557H145.325C145.168 27.3764 144.622 28.8662 144.216 30.0084H143.736C143.43 29.0648 142.867 27.3847 142.702 26.7474H142.685C142.71 27.1695 142.727 27.9641 142.727 28.5848V30.0084H142.222V26.375H143.024C143.413 27.4675 143.885 28.8745 144.001 29.3545C144.084 28.9821 144.647 27.4427 145.052 26.375H145.83V30.0084H145.309V28.4938H145.317Z" fill="white"/>
<path d="M147.16 26.3672V30.0005H146.622V26.3672H147.16Z" fill="white"/>
<path d="M147.94 30.0083V26.375H148.643C149.148 27.2192 150.233 28.9655 150.431 29.3628C150.398 28.9159 150.398 28.3282 150.398 27.7323V26.375H150.903V30.0083H150.241C149.777 29.2304 148.643 27.3351 148.42 26.9295C148.445 27.3268 148.445 27.9641 148.445 28.6262V30.0166H147.94V30.0083Z" fill="white"/>
<defs>
<linearGradient id="paint0_linear_1368_5766" x1="20.566" y1="15.0864" x2="5.82629" y2="28.7574" gradientUnits="userSpaceOnUse">
<stop offset="0.02" stop-color="#F8CB00"/>
<stop offset="0.5" stop-color="#F8E057"/>
<stop offset="0.9" stop-color="#F9F19E"/>
</linearGradient>
<linearGradient id="paint1_linear_1368_5766" x1="29.7532" y1="27.4796" x2="12.7171" y2="3.2651" gradientUnits="userSpaceOnUse">
<stop stop-color="#F8C900"/>
<stop offset="0.28" stop-color="#FBDF4F"/>
<stop offset="0.55" stop-color="#FFF59B"/>
</linearGradient>
<linearGradient id="paint2_linear_1368_5766" x1="11.1232" y1="23.7391" x2="33.1746" y2="30.9285" gradientUnits="userSpaceOnUse">
<stop offset="0.08" stop-color="#F8CB00"/>
<stop offset="0.48" stop-color="#FAE156"/>
<stop offset="0.83" stop-color="#FDF39D"/>
</linearGradient>
</defs>
</svg>
