<svg width="163" height="45" viewBox="0 0 163 45" fill="none" xmlns="http://www.w3.org/2000/svg">
<g clip-path="url(#clip0_483_1306)">
<path d="M9.16607 16.8334C6.27906 19.7125 4.49771 23.6917 4.49771 28.0783C4.49771 28.8388 4.55231 29.5925 4.65469 30.3259C5.22117 34.3051 7.26187 37.8089 10.2035 40.2739L3.91758 36.6614C1.48786 35.2693 -0.00683594 32.6958 -0.00683594 29.9049V15.3327C-0.00683594 12.732 1.28993 10.3146 3.433 8.86824C3.58998 8.75959 3.74696 8.66452 3.91076 8.56946L13.2748 3.19146C14.1211 3.05565 14.9879 2.98096 15.8683 2.98096C17.4654 2.98096 19.0078 3.21183 20.4616 3.64642C26.3789 5.40513 30.863 10.4708 31.7434 16.684C28.8564 13.8592 24.891 12.1208 20.523 12.1208C16.1549 12.1208 12.0599 13.9135 9.15924 16.8198L9.16607 16.8334Z" fill="url(#paint0_linear_483_1306)"/>
<path d="M41.0593 15.3395V19.8823C40.8272 23.8954 39.1005 27.5147 36.4182 30.1901C33.5176 33.0964 29.4976 34.8891 25.0545 34.8891C23.4574 34.8891 21.915 34.6582 20.4612 34.2236C27.0747 32.2612 31.9 26.1566 31.9 18.9384C31.9 18.1779 31.8454 17.4242 31.7431 16.6908C30.8626 10.4708 26.3786 5.40515 20.4612 3.65323C19.0075 3.22543 17.465 2.98777 15.8679 2.98777C14.9875 2.98777 14.1207 3.05567 13.2744 3.19827L17.3968 0.828418C19.3283 -0.278418 21.7034 -0.278418 23.6349 0.828418L27.8118 3.22543L37.1212 8.57627C37.1963 8.61701 37.2714 8.65775 37.3396 8.71208C39.6397 10.1245 41.0456 12.6301 41.0456 15.3395H41.0593Z" fill="url(#paint1_linear_483_1306)"/>
<path d="M41.06 19.8823V29.9117C41.06 32.7026 39.5653 35.2762 37.1356 36.6682L30.8497 40.2807L25.9561 43.0919L24.4477 43.9543C22.0248 45.3463 19.0286 45.3463 16.6057 43.9543L15.0974 43.0919L10.2038 40.2807C7.25538 37.8158 5.21468 34.3051 4.65502 30.3327C4.55265 29.5994 4.49805 28.8524 4.49805 28.0851C4.49805 23.6985 6.27939 19.7193 9.1664 16.8402C9.07767 17.5328 9.0299 18.2322 9.0299 18.9452C9.0299 26.1634 13.8552 32.268 20.4687 34.2304C21.9225 34.6582 23.4649 34.8959 25.062 34.8959C29.5051 34.8959 33.5251 33.1032 36.4258 30.1969C39.1012 27.5215 40.8348 23.9022 41.0668 19.8891L41.06 19.8823Z" fill="url(#paint2_linear_483_1306)"/>
<path d="M60.8934 12V28.4939C60.8934 29.818 60.8934 31.1557 60.9207 32.4866H57.0304C57.0304 31.6582 57.0031 31.4273 57.0031 31.0742C56.3001 32.215 54.8873 32.8262 52.7033 32.8262C49.0109 32.8262 46.6631 29.8723 46.6631 25.3431C46.6631 20.8139 49.1611 17.6225 53.2971 17.6225C55.3992 17.6225 56.5253 18.3626 56.8529 19.0145V12H60.8934ZM50.5466 25.2209C50.5466 28.0525 51.9252 29.6007 53.9045 29.6007C56.6823 29.6007 57.0031 27.292 57.0031 25.2073C57.0031 22.722 56.6482 20.8411 54.0069 20.8411C51.8843 20.8411 50.5397 22.4776 50.5397 25.2209H50.5466Z" fill="#111111"/>
<path d="M67.7524 24.0937C68.8239 22.6473 70.7622 20.3861 72.7824 17.962H77.4167L72.3252 23.4486L77.8944 32.4934H73.3148L69.6224 26.029L67.7524 27.8284V32.4934H63.7119V12.0068H67.7524V24.0937Z" fill="#111111"/>
<path d="M90.3712 29.3834C90.3712 30.6804 90.4872 32.0792 90.5691 32.4866H88.2076C88.0916 32.1675 88.0097 31.4952 87.9755 30.6261C87.4773 31.5767 86.3375 32.8262 83.5597 32.8262C80.1881 32.8262 78.748 30.6396 78.748 28.4735C78.748 25.2956 81.2529 23.8425 85.5049 23.8425H87.9483V22.627C87.9483 21.3707 87.5456 19.8429 84.8701 19.8429C82.4814 19.8429 82.0787 21.0244 81.8193 22.1313H79.4306C79.6217 20.1688 80.8365 17.9008 84.952 17.9144C88.4465 17.928 90.3848 19.3404 90.3848 22.5794V29.3834H90.3712ZM87.9619 25.5468H85.6482C82.7953 25.5468 81.2665 26.3277 81.2665 28.3377C81.2665 29.818 82.2834 30.8977 84.0511 30.8977C87.4978 30.8977 87.9619 28.5889 87.9619 26.0018V25.5468Z" fill="#111111"/>
<path d="M91.8379 18.254H94.3086V14.0575H96.7792V18.254H99.9393V20.2571H96.7792V28.5957C96.7792 29.981 97.1205 30.6872 98.4104 30.6872C98.7517 30.6872 99.2636 30.6668 99.6594 30.5718V32.4255C99.052 32.6496 98.2057 32.6904 97.5232 32.6904C95.2982 32.6904 94.3154 31.5428 94.3154 29.1797V20.2639H91.8447V18.2608L91.8379 18.254Z" fill="#111111"/>
<path d="M120.982 25.3431C120.982 29.4445 118.62 32.8262 114.245 32.8262C110.15 32.8262 107.666 29.6686 107.666 25.3907C107.666 21.1127 110.096 17.9144 114.402 17.9144C118.375 17.9144 120.975 20.875 120.975 25.3431H120.982ZM110.212 25.3703C110.212 28.4939 111.775 30.7687 114.348 30.7687C116.921 30.7687 118.436 28.6093 118.436 25.3771C118.436 22.1448 116.975 19.9719 114.293 19.9719C111.611 19.9719 110.212 22.1245 110.212 25.3703Z" fill="#111111"/>
<path d="M123.247 21.8461C123.247 20.6102 123.247 19.3608 123.22 18.2607H125.677C125.677 18.478 125.718 19.8157 125.718 20.325C126.291 19.1027 127.451 17.9212 130.222 17.9212C132.993 17.9212 135 19.5509 135 23.3399V32.4934H132.529V23.6523C132.529 21.4997 131.683 20.0534 129.499 20.0534C126.803 20.0534 125.711 22.0973 125.711 24.9561V32.4934H123.24V21.8461H123.247Z" fill="#111111"/>
<path d="M102.847 17.9212H105.317V32.4934H102.847V17.9212Z" fill="#111111"/>
<path d="M105.317 12H102.847V14.4581H105.317V12Z" fill="#111111"/>
</g>
<rect x="139" y="24" width="23" height="9" rx="4.5" fill="#111111"/>
<rect x="139" y="24" width="23" height="9" rx="4.5" stroke="#111111" stroke-width="0.3" stroke-miterlimit="10"/>
<path d="M143.411 29.2738L143.039 30.3166H142.501L143.784 26.6833H144.454L145.795 30.3166H145.224L144.843 29.2738H143.411ZM144.711 28.8186C144.38 27.8999 144.198 27.3951 144.115 27.1054C144.024 27.4199 143.817 28.0323 143.552 28.8186H144.719H144.711Z" fill="white"/>
<path d="M146.283 26.6751H147.607C148.634 26.6751 149.329 27.3703 149.329 28.4545C149.329 29.5388 148.659 30.3085 147.591 30.3085H146.283V26.6751ZM146.821 29.8615H147.549C148.377 29.8615 148.766 29.2656 148.766 28.4628C148.766 27.7676 148.41 27.1303 147.558 27.1303H146.821V29.8615Z" fill="white"/>
<path d="M152.914 28.8021C152.914 28.1399 152.914 27.453 152.939 27.064H152.922C152.765 27.6847 152.219 29.1745 151.813 30.3166H151.333C151.027 29.3731 150.464 27.693 150.298 27.0557H150.282C150.307 27.4778 150.323 28.2724 150.323 28.8931V30.3166H149.818V26.6833H150.621C151.01 27.7758 151.482 29.1828 151.598 29.6628C151.681 29.2904 152.243 27.7509 152.649 26.6833H153.427V30.3166H152.905V28.8021H152.914Z" fill="white"/>
<path d="M154.757 26.6751V30.3085H154.219V26.6751H154.757Z" fill="white"/>
<path d="M155.537 30.3166V26.6833H156.241C156.745 27.5275 157.83 29.2738 158.028 29.6711C157.995 29.2241 157.995 28.6365 157.995 28.0406V26.6833H158.5V30.3166H157.838C157.374 29.5387 156.241 27.6434 156.017 27.2378C156.042 27.6351 156.042 28.2724 156.042 28.9345V30.3249H155.537V30.3166Z" fill="white"/>
<defs>
<linearGradient id="paint0_linear_483_1306" x1="21.3693" y1="11.1634" x2="-1.85627" y2="32.705" gradientUnits="userSpaceOnUse">
<stop offset="0.02" stop-color="#F8CB00"/>
<stop offset="0.5" stop-color="#F8E057"/>
<stop offset="0.9" stop-color="#F9F19E"/>
</linearGradient>
<linearGradient id="paint1_linear_483_1306" x1="35.8449" y1="30.6926" x2="9.00086" y2="-7.46255" gradientUnits="userSpaceOnUse">
<stop stop-color="#F8C900"/>
<stop offset="0.28" stop-color="#FBDF4F"/>
<stop offset="0.55" stop-color="#FFF59B"/>
</linearGradient>
<linearGradient id="paint2_linear_483_1306" x1="6.49097" y1="24.7986" x2="41.2377" y2="36.127" gradientUnits="userSpaceOnUse">
<stop offset="0.08" stop-color="#F8CB00"/>
<stop offset="0.48" stop-color="#FAE156"/>
<stop offset="0.83" stop-color="#FDF39D"/>
</linearGradient>
<clipPath id="clip0_483_1306">
<rect width="135" height="45" fill="white"/>
</clipPath>
</defs>
</svg>
