<svg width="20" height="20" viewBox="0 0 20 20" fill="none" xmlns="http://www.w3.org/2000/svg">
    <g clip-path="url(#clip0_326_4355)">
        <path d="M17.0834 9.16683H15.8334V5.8335C15.8334 4.91683 15.0834 4.16683 14.1667 4.16683H10.8334V2.91683C10.8334 1.76683 9.90008 0.833496 8.75008 0.833496C7.60008 0.833496 6.66675 1.76683 6.66675 2.91683V4.16683H3.33341C2.41675 4.16683 1.67508 4.91683 1.67508 5.8335V9.00016H2.91675C4.15841 9.00016 5.16675 10.0085 5.16675 11.2502C5.16675 12.4918 4.15841 13.5002 2.91675 13.5002H1.66675V16.6668C1.66675 17.5835 2.41675 18.3335 3.33341 18.3335H6.50008V17.0835C6.50008 15.8418 7.50841 14.8335 8.75008 14.8335C9.99175 14.8335 11.0001 15.8418 11.0001 17.0835V18.3335H14.1667C15.0834 18.3335 15.8334 17.5835 15.8334 16.6668V13.3335H17.0834C18.2334 13.3335 19.1667 12.4002 19.1667 11.2502C19.1667 10.1002 18.2334 9.16683 17.0834 9.16683Z" fill="#666666"/>
    </g>
    <defs>
        <clipPath id="clip0_326_4355">
            <rect width="20" height="20" fill="white"/>
        </clipPath>
    </defs>
</svg>
