<svg width="48" height="48" viewBox="0 0 48 48" fill="none" xmlns="http://www.w3.org/2000/svg">
    <g opacity="0.7" clip-path="url(#clip0_619_3455)">
        <path d="M0 16.318L0 31.682C0 40.6942 7.30581 48 16.318 48H31.682C40.6942 48 48 40.6942 48 31.682V16.318C48 7.30581 40.6942 0 31.682 0H16.318C7.30581 0 0 7.30581 0 16.318Z"
              fill="url(#paint0_linear_619_3455)"/>
        <path d="M26.5788 31.582H21.4213C13.8052 31.582 7.44549 37.2398 6.33643 44.5612C9.10133 46.7134 12.5643 48.0008 16.318 48.0008H31.682C35.4358 48.0008 38.8987 46.7134 41.6636 44.5612C40.5546 37.2398 34.1949 31.582 26.5788 31.582Z"
              fill="url(#paint1_linear_619_3455)"/>
        <path d="M26.5788 31.582H21.4213C13.8052 31.582 7.44549 37.2398 6.33643 44.5612C9.10133 46.7134 12.5643 48.0008 16.318 48.0008H31.682C35.4358 48.0008 38.8987 46.7134 41.6636 44.5612C40.5546 37.2398 34.1949 31.582 26.5788 31.582Z"
              fill="url(#paint2_linear_619_3455)"/>
        <path d="M24.0001 27.2541C28.4848 27.2541 32.1203 23.6186 32.1203 19.1339C32.1203 14.6492 28.4848 11.0137 24.0001 11.0137C19.5154 11.0137 15.8799 14.6492 15.8799 19.1339C15.8799 23.6186 19.5154 27.2541 24.0001 27.2541Z"
              fill="url(#paint3_linear_619_3455)"/>
    </g>
    <defs>
        <linearGradient id="paint0_linear_619_3455" x1="24" y1="48" x2="24" y2="0" gradientUnits="userSpaceOnUse">
            <stop offset="0.29" stop-color="#FAD641"/>
            <stop offset="0.4" stop-color="#FAD745"/>
            <stop offset="0.48" stop-color="#F9DA51"/>
            <stop offset="0.97" stop-color="#F9F19D"/>
        </linearGradient>
        <linearGradient id="paint1_linear_619_3455" x1="2.15561e-05" y1="39.7914" x2="48" y2="39.7914"
                        gradientUnits="userSpaceOnUse">
            <stop stop-color="#F9F19D"/>
        </linearGradient>
        <linearGradient id="paint2_linear_619_3455" x1="6.16192" y1="0.000841635" x2="41.8342" y2="0.000841635"
                        gradientUnits="userSpaceOnUse">
            <stop stop-color="#F9F19D"/>
        </linearGradient>
        <linearGradient id="paint3_linear_619_3455" x1="15.8799" y1="19.1339" x2="32.1164" y2="19.1339"
                        gradientUnits="userSpaceOnUse">
            <stop stop-color="#F9F19D"/>
        </linearGradient>
        <clipPath id="clip0_619_3455">
            <rect width="48" height="48" fill="white"/>
        </clipPath>
    </defs>
</svg>
