<svg width="60" height="50" viewBox="0 0 60 50" fill="none" xmlns="http://www.w3.org/2000/svg">
    <g opacity="0.7" clip-path="url(#clip0_619_1241)">
        <path d="M2.12562 42.0148C0.427641 39.0619 -0.371408 35.5211 0.16367 31.7582C1.16248 24.727 6.86284 19.1077 13.8831 18.2476C24.1993 16.9933 32.8605 25.6946 31.6119 36.0587C30.763 43.1043 25.1625 48.8382 18.1637 49.8417C14.4181 50.3792 10.8938 49.5765 7.94726 47.8706L7.30517 48.0426L1.55487 49.5908C0.862838 49.7772 0.227879 49.1393 0.413373 48.444L1.9544 42.6671L2.12562 42.022V42.0148Z"
              fill="url(#paint0_linear_619_1241)"/>
        <path d="M56.9754 33.9734C59.3939 29.7733 60.5283 24.7346 59.772 19.3805C58.3452 9.38198 50.2405 1.39029 40.2596 0.171831C25.5913 -1.61286 13.2774 10.7581 15.0539 25.4944C16.2667 35.5216 24.2215 43.6638 34.1739 45.0901C39.5033 45.857 44.5188 44.7102 48.6995 42.2805L49.6056 42.5242L57.7816 44.7246C58.7661 44.9898 59.6722 44.0867 59.4082 43.0904L57.2179 34.8765L56.9754 33.9663V33.9734Z"
              fill="url(#paint1_linear_619_1241)"/>
        <path d="M28.4094 24.9866C29.5599 24.9866 30.4926 24.0495 30.4926 22.8937C30.4926 21.7378 29.5599 20.8008 28.4094 20.8008C27.2589 20.8008 26.3262 21.7378 26.3262 22.8937C26.3262 24.0495 27.2589 24.9866 28.4094 24.9866Z"
              fill="#ECAC35"/>
        <path d="M37.4416 24.9866C38.5922 24.9866 39.5249 24.0495 39.5249 22.8937C39.5249 21.7378 38.5922 20.8008 37.4416 20.8008C36.2911 20.8008 35.3584 21.7378 35.3584 22.8937C35.3584 24.0495 36.2911 24.9866 37.4416 24.9866Z"
              fill="#ECAC35"/>
        <path d="M46.4739 24.9866C47.6244 24.9866 48.5571 24.0495 48.5571 22.8937C48.5571 21.7378 47.6244 20.8008 46.4739 20.8008C45.3233 20.8008 44.3906 21.7378 44.3906 22.8937C44.3906 24.0495 45.3233 24.9866 46.4739 24.9866Z"
              fill="#ECAC35"/>
    </g>
    <defs>
        <linearGradient id="paint0_linear_619_1241" x1="31.7261" y1="34.0662" x2="-0.000420594" y2="34.0662"
                        gradientUnits="userSpaceOnUse">
            <stop stop-color="#F5CA38"/>
            <stop offset="0.25" stop-color="#F7D451"/>
            <stop offset="1" stop-color="#FDF39D"/>
        </linearGradient>
        <linearGradient id="paint1_linear_619_1241" x1="14.8826" y1="22.6632" x2="60.0003" y2="22.6632"
                        gradientUnits="userSpaceOnUse">
            <stop stop-color="#EFC537"/>
            <stop offset="0.26" stop-color="#F2D151"/>
            <stop offset="1" stop-color="#FDF39D"/>
        </linearGradient>
        <clipPath id="clip0_619_1241">
            <rect width="60" height="50" fill="white"/>
        </clipPath>
    </defs>
</svg>
