<svg width="10" height="16" viewBox="0 0 10 16" fill="none" xmlns="http://www.w3.org/2000/svg">
    <path d="M0.585938 7.6543C0.585938 7.54297 0.606445 7.44043 0.647461 7.34668C0.688477 7.24707 0.75 7.15625 0.832031 7.07422L7.80176 0.253906C7.95996 0.101563 8.15039 0.0253906 8.37305 0.0253906C8.52539 0.0253906 8.66016 0.0605469 8.77734 0.130859C8.90039 0.201172 8.99707 0.297852 9.06738 0.420898C9.14355 0.538086 9.18164 0.672852 9.18164 0.825195C9.18164 1.04199 9.10254 1.23242 8.94434 1.39648L2.5459 7.6543L8.94434 13.9121C9.10254 14.0762 9.18164 14.2666 9.18164 14.4834C9.18164 14.6357 9.14355 14.7705 9.06738 14.8877C8.99707 15.0107 8.90039 15.1074 8.77734 15.1777C8.66016 15.248 8.52539 15.2832 8.37305 15.2832C8.15039 15.2832 7.95996 15.2041 7.80176 15.0459L0.832031 8.23438C0.75 8.15234 0.688477 8.06445 0.647461 7.9707C0.606445 7.87109 0.585938 7.76562 0.585938 7.6543Z" fill="#D9D9D9"/>
</svg>
