<svg width="19" height="19" viewBox="0 0 19 19" fill="none" xmlns="http://www.w3.org/2000/svg">
    <g clip-path="url(#clip0_579_1589)">
        <path d="M9.5 1.1875C5.89594 1.1875 2.96875 4.12063 2.96875 7.71875C2.96875 9.13781 3.42594 10.4916 4.28687 11.6375C4.28687 11.6375 4.465 11.8691 4.49469 11.9047L9.50594 17.8125L14.5172 11.9047C14.5409 11.875 14.7191 11.6375 14.7191 11.6375C15.58 10.4916 16.0312 9.13781 16.0312 7.71875C16.0312 4.12063 13.1041 1.1875 9.5 1.1875ZM9.5 10.0938C8.18781 10.0938 7.125 9.03094 7.125 7.71875C7.125 6.40656 8.18781 5.34375 9.5 5.34375C10.8122 5.34375 11.875 6.40656 11.875 7.71875C11.875 9.03094 10.8122 10.0938 9.5 10.0938Z" fill="#FDE000"/>
    </g>
    <defs>
        <clipPath id="clip0_579_1589">
            <rect width="19" height="19" fill="white"/>
        </clipPath>
    </defs>
</svg>
