<svg width="1320" height="1447" viewBox="0 0 1320 1447" fill="none" xmlns="http://www.w3.org/2000/svg">
<g opacity="0.3">
<path d="M294.796 541.22C202.015 633.748 144.767 761.629 144.767 902.603C144.767 927.045 146.522 951.268 149.812 974.837C168.017 1102.72 233.6 1215.32 328.136 1294.54L126.123 1178.44C48.0377 1133.71 0.00195312 1051 0.00195312 961.306V492.992C0.00195312 409.411 41.6768 331.722 110.55 285.24C115.595 281.748 120.64 278.693 125.904 275.638L426.84 102.802C454.038 98.4376 481.894 96.0371 510.189 96.0371C561.515 96.0371 611.086 103.457 657.806 117.423C847.975 173.944 992.082 336.741 1020.38 536.419C927.595 445.636 800.158 389.77 659.78 389.77C519.402 389.77 387.797 447.382 294.577 540.783L294.796 541.22Z" fill="url(#paint0_linear_946_938)"/>
<path d="M1319.78 493.211V639.204C1312.33 768.176 1256.83 884.491 1170.63 970.473C1077.41 1063.87 948.22 1121.49 805.429 1121.49C754.104 1121.49 704.532 1114.07 657.813 1100.1C870.354 1037.03 1025.43 840.846 1025.43 608.871C1025.43 584.429 1023.67 560.206 1020.38 536.638C992.089 336.742 847.982 173.945 657.813 117.642C611.093 103.894 561.522 96.256 510.196 96.256C481.901 96.256 454.045 98.4383 426.847 103.021L559.329 26.8599C621.402 -8.7111 697.733 -8.7111 759.806 26.8599L894.043 103.894L1193.22 275.857C1195.64 277.166 1198.05 278.475 1200.24 280.221C1274.16 325.612 1319.35 406.138 1319.35 493.211H1319.78Z" fill="url(#paint1_linear_946_938)"/>
<path d="M1319.78 639.205V961.526C1319.78 1051.22 1271.75 1133.93 1193.66 1178.66L991.647 1294.76L834.379 1385.1L785.905 1412.82C708.039 1457.56 611.748 1457.56 533.882 1412.82L485.407 1385.1L328.14 1294.76C233.384 1215.54 167.801 1102.72 149.815 975.056C146.525 951.488 144.771 927.483 144.771 902.823C144.771 761.849 202.019 633.968 294.8 541.439C291.948 563.699 290.413 586.176 290.413 609.09C290.413 841.065 445.487 1037.25 658.029 1100.32C704.748 1114.07 754.32 1121.7 805.645 1121.7C948.436 1121.7 1077.63 1064.09 1170.85 970.692C1256.83 884.71 1312.54 768.395 1320 639.423L1319.78 639.205Z" fill="url(#paint2_linear_946_938)"/>
</g>
<defs>
<linearGradient id="paint0_linear_946_938" x1="686.978" y1="359" x2="-59.4344" y2="1051.3" gradientUnits="userSpaceOnUse">
<stop offset="0.02" stop-color="#F8CB00"/>
<stop offset="0.5" stop-color="#F8E057"/>
<stop offset="0.9" stop-color="#F9F19E"/>
</linearGradient>
<linearGradient id="paint1_linear_946_938" x1="1152.21" y1="986.621" x2="289.505" y2="-239.591" gradientUnits="userSpaceOnUse">
<stop stop-color="#F8C900"/>
<stop offset="0.28" stop-color="#FBDF4F"/>
<stop offset="0.55" stop-color="#FFF59B"/>
</linearGradient>
<linearGradient id="paint2_linear_946_938" x1="208.818" y1="797.201" x2="1325.49" y2="1161.27" gradientUnits="userSpaceOnUse">
<stop offset="0.08" stop-color="#F8CB00"/>
<stop offset="0.48" stop-color="#FAE156"/>
<stop offset="0.83" stop-color="#FDF39D"/>
</linearGradient>
</defs>
</svg>
