<svg width="184" height="45" viewBox="0 0 184 45" fill="none" xmlns="http://www.w3.org/2000/svg">
<path d="M29.6407 0.441589V35.0688C29.6407 37.8486 29.6407 40.657 29.6975 43.4511H21.5943C21.5943 41.7119 21.5374 41.2272 21.5374 40.4859C20.0732 42.8809 17.1305 44.1639 12.5813 44.1639C4.89035 44.1639 0 37.9627 0 28.4541C0 18.9455 5.2031 12.2453 13.8181 12.2453C18.1967 12.2453 20.5423 13.7992 21.2247 15.1678V0.441589H29.6407ZM8.08898 28.1975C8.08898 34.1421 10.9606 37.3925 15.0833 37.3925C20.8693 37.3925 21.5374 32.5455 21.5374 28.169C21.5374 22.9514 20.7982 19.0026 15.2966 19.0026C10.8753 19.0026 8.07477 22.4382 8.07477 28.1975H8.08898Z" fill="#111111"/>
<path d="M43.9286 25.831C46.1606 22.7945 50.198 18.0474 54.406 12.9581H64.0587L53.4535 24.4767L65.0538 43.4654H55.5148L47.8239 29.8939L43.9286 33.6717V43.4654H35.5127V0.455811H43.9286V25.831Z" fill="#111111"/>
<path d="M91.0402 36.9363C91.0402 39.6591 91.2818 42.5958 91.4524 43.4511H86.5337C86.292 42.7811 86.1214 41.3698 86.0503 39.5451C85.0125 41.5409 82.6384 44.1639 76.8525 44.1639C69.8297 44.1639 66.8301 39.5736 66.8301 35.026C66.8301 28.3543 72.0474 25.3036 80.9041 25.3036H85.9934V22.7518C85.9934 20.1145 85.1547 16.907 79.582 16.907C74.6063 16.907 73.7676 19.3875 73.2273 21.7112H68.2517C68.6497 17.5912 71.1802 12.8298 79.7526 12.8583C87.0312 12.8869 91.0686 15.852 91.0686 22.652V36.9363H91.0402ZM86.0219 28.8818H81.2026C75.2603 28.8818 72.0758 30.5212 72.0758 34.7409C72.0758 37.8486 74.194 40.1153 77.876 40.1153C85.0552 40.1153 86.0219 35.2684 86.0219 29.8369V28.8818Z" fill="#111111"/>
<path d="M94.0967 13.5711H99.2429V4.76105H104.389V13.5711H110.971V17.7765H104.389V35.2826C104.389 38.1907 105.1 39.6733 107.787 39.6733C108.498 39.6733 109.564 39.6306 110.388 39.431V43.3228C109.123 43.7932 107.36 43.8788 105.939 43.8788C101.304 43.8788 99.2571 41.4696 99.2571 36.5086V17.7908H94.1109V13.5853L94.0967 13.5711Z" fill="#111111"/>
<path d="M154.799 28.4542C154.799 37.0646 149.88 44.164 140.768 44.164C132.238 44.164 127.063 37.5351 127.063 28.554C127.063 19.5728 132.124 12.8584 141.095 12.8584C149.369 12.8584 154.785 19.0739 154.785 28.4542H154.799ZM132.366 28.5112C132.366 35.0688 135.622 39.8445 140.981 39.8445C146.341 39.8445 149.497 35.3112 149.497 28.5254C149.497 21.7397 146.454 17.1779 140.867 17.1779C135.28 17.1779 132.366 21.697 132.366 28.5112Z" fill="#111111"/>
<path d="M159.52 21.1124C159.52 18.5179 159.52 15.8948 159.463 13.5854H164.581C164.581 14.0416 164.666 16.85 164.666 17.9191C165.86 15.3531 168.277 12.8726 174.049 12.8726C179.82 12.8726 184 16.294 184 24.2487V43.4654H178.854V24.9045C178.854 20.3854 177.091 17.3489 172.542 17.3489C166.926 17.3489 164.652 21.6399 164.652 27.6416V43.4654H159.506V21.1124H159.52Z" fill="#111111"/>
<path d="M117.027 12.8726H122.174V43.4654H117.027V12.8726Z" fill="#111111"/>
<path d="M122.174 0.441589H117.027V5.60217H122.174V0.441589Z" fill="#111111"/>
</svg>
