<svg width="20" height="16" viewBox="0 0 20 16" fill="none" xmlns="http://www.w3.org/2000/svg">
    <path d="M12.5 11.3333C12.7361 11.3333 12.9342 11.2533 13.0942 11.0933C13.2536 10.9339 13.3333 10.7361 13.3333 10.5V8.83333H15C15.2361 8.83333 15.4339 8.75333 15.5933 8.59333C15.7533 8.43389 15.8333 8.23611 15.8333 8C15.8333 7.76389 15.7533 7.56583 15.5933 7.40583C15.4339 7.24639 15.2361 7.16667 15 7.16667H13.3333V5.5C13.3333 5.26389 13.2536 5.06583 13.0942 4.90583C12.9342 4.74639 12.7361 4.66667 12.5 4.66667C12.2639 4.66667 12.0661 4.74639 11.9067 4.90583C11.7467 5.06583 11.6667 5.26389 11.6667 5.5V7.16667H10C9.76389 7.16667 9.56611 7.24639 9.40667 7.40583C9.24667 7.56583 9.16667 7.76389 9.16667 8C9.16667 8.23611 9.24667 8.43389 9.40667 8.59333C9.56611 8.75333 9.76389 8.83333 10 8.83333H11.6667V10.5C11.6667 10.7361 11.7467 10.9339 11.9067 11.0933C12.0661 11.2533 12.2639 11.3333 12.5 11.3333ZM3.6875 14.4792C2.57639 13.8542 1.68417 12.9653 1.01083 11.8125C0.336944 10.6597 0 9.38889 0 8C0 6.61111 0.343889 5.33667 1.03167 4.17667C1.71889 3.01722 2.65278 2.10417 3.83333 1.4375C4.11111 1.28472 4.375 1.29861 4.625 1.47917C4.875 1.65972 5 1.90972 5 2.22917C5 2.36806 4.95833 2.51389 4.875 2.66667C4.79167 2.81944 4.68056 2.93056 4.54167 3C3.65278 3.52778 2.95139 4.2325 2.4375 5.11417C1.92361 5.99639 1.66667 6.95833 1.66667 8C1.66667 9.04167 1.92361 10.0036 2.4375 10.8858C2.95139 11.7675 3.65278 12.4722 4.54167 13C4.68056 13.0694 4.79167 13.1806 4.875 13.3333C4.95833 13.4861 5 13.6389 5 13.7917C5 14.1111 4.86806 14.3542 4.60417 14.5208C4.34028 14.6875 4.03472 14.6736 3.6875 14.4792ZM12.5 15.5C11.4583 15.5 10.4828 15.3022 9.57333 14.9067C8.66333 14.5106 7.87167 13.9756 7.19833 13.3017C6.52444 12.6283 5.98972 11.8367 5.59417 10.9267C5.19806 10.0172 5 9.04167 5 8C5 6.95833 5.19806 5.9825 5.59417 5.0725C5.98972 4.16306 6.52444 3.37139 7.19833 2.6975C7.87167 2.02417 8.66333 1.48944 9.57333 1.09333C10.4828 0.697778 11.4583 0.5 12.5 0.5C13.5417 0.5 14.5175 0.697778 15.4275 1.09333C16.3369 1.48944 17.1286 2.02417 17.8025 2.6975C18.4758 3.37139 19.0106 4.16306 19.4067 5.0725C19.8022 5.9825 20 6.95833 20 8C20 9.04167 19.8022 10.0172 19.4067 10.9267C19.0106 11.8367 18.4758 12.6283 17.8025 13.3017C17.1286 13.9756 16.3369 14.5106 15.4275 14.9067C14.5175 15.3022 13.5417 15.5 12.5 15.5Z" fill="#666666"/>
</svg>
