<svg width="10" height="16" viewBox="0 0 10 16" fill="none" xmlns="http://www.w3.org/2000/svg">
    <path d="M9.42285 7.6543C9.42285 7.76562 9.39941 7.87109 9.35254 7.9707C9.31152 8.06445 9.25 8.15234 9.16797 8.23438L2.20703 15.0459C2.04883 15.2041 1.85547 15.2832 1.62695 15.2832C1.48047 15.2832 1.3457 15.248 1.22266 15.1777C1.09961 15.1074 1.00293 15.0107 0.932617 14.8877C0.862305 14.7705 0.827148 14.6357 0.827148 14.4834C0.827148 14.2666 0.90332 14.0762 1.05566 13.9121L7.4541 7.6543L1.05566 1.39648C0.90332 1.23242 0.827148 1.04199 0.827148 0.825195C0.827148 0.672852 0.862305 0.538086 0.932617 0.420898C1.00293 0.297852 1.09961 0.201172 1.22266 0.130859C1.3457 0.0605469 1.48047 0.0253906 1.62695 0.0253906C1.85547 0.0253906 2.04883 0.101563 2.20703 0.253906L9.16797 7.07422C9.25 7.15625 9.31152 7.24707 9.35254 7.34668C9.39941 7.44043 9.42285 7.54297 9.42285 7.6543Z" fill="#D9D9D9"/>
</svg>
