<svg width="25" height="24" viewBox="0 0 25 24" fill="none" xmlns="http://www.w3.org/2000/svg">
    <g clip-path="url(#clip0_7_896)">
        <path d="M16.3901 14H15.6001L15.3201 13.73C16.3001 12.59 16.8901 11.11 16.8901 9.5C16.8901 5.91 13.9801 3 10.3901 3C6.80014 3 3.89014 5.91 3.89014 9.5C3.89014 13.09 6.80014 16 10.3901 16C12.0001 16 13.4801 15.41 14.6201 14.43L14.8901 14.71V15.5L19.8901 20.49L21.3801 19L16.3901 14ZM10.3901 14C7.90014 14 5.89014 11.99 5.89014 9.5C5.89014 7.01 7.90014 5 10.3901 5C12.8801 5 14.8901 7.01 14.8901 9.5C14.8901 11.99 12.8801 14 10.3901 14Z" fill="#D9D9D9"/>
    </g>
    <defs>
        <clipPath id="clip0_7_896">
            <rect width="24" height="24" fill="white" transform="translate(0.890137)"/>
        </clipPath>
    </defs>
</svg>
