<svg width="28" height="29" viewBox="0 0 28 29" fill="none" xmlns="http://www.w3.org/2000/svg">
    <g clip-path="url(#clip0_691_8193)">
        <path d="M21 15.375H19.25V17.125H21V15.375Z" fill="#111111"/>
        <path d="M24.5 7.5H3.5V4.875H22.75V3.125H3.5C2.5375 3.125 1.75 3.9125 1.75 4.875V23.25C1.75 24.2125 2.5375 25 3.5 25H24.5C25.4625 25 26.25 24.2125 26.25 23.25V9.25C26.25 8.2875 25.4625 7.5 24.5 7.5ZM3.5 23.25V9.25H24.5V11.875H17.5C16.5375 11.875 15.75 12.6625 15.75 13.625V18.875C15.75 19.8375 16.5375 20.625 17.5 20.625H24.5V23.25H3.5ZM24.5 13.625V18.875H17.5V13.625H24.5Z"
              fill="#111111"/>
    </g>
    <defs>
        <clipPath id="clip0_691_8193">
            <rect width="28" height="28" fill="white" transform="translate(0 0.5)"/>
        </clipPath>
    </defs>
</svg>
